<?xml version="1.0" encoding="utf-8"?>
<!-- Generator: Adobe Illustrator 16.0.0, SVG Export Plug-In . SVG Version: 6.00 Build 0)  -->
<!DOCTYPE svg PUBLIC "-//W3C//DTD SVG 1.1//EN" "http://www.w3.org/Graphics/SVG/1.1/DTD/svg11.dtd">
<svg version="1.1" id="Layer_1" xmlns="http://www.w3.org/2000/svg" xmlns:xlink="http://www.w3.org/1999/xlink" x="0px" y="0px"
	 width="352px" height="160px" viewBox="0 0 352 160" enable-background="new 0 0 352 160" xml:space="preserve">
<g>
	<g>
		<defs>
			<rect id="SVGID_1_" x="31.5" y="15.978" width="289" height="130.044"/>
		</defs>
		<clipPath id="SVGID_2_">
			<use xlink:href="#SVGID_1_"  overflow="visible"/>
		</clipPath>
		<g clip-path="url(#SVGID_2_)">
			<defs>
				<rect id="SVGID_3_" x="31.5" y="15.978" width="289" height="130.044"/>
			</defs>
			<clipPath id="SVGID_4_">
				<use xlink:href="#SVGID_3_"  overflow="visible"/>
			</clipPath>
			<path clip-path="url(#SVGID_4_)" fill="#20BEFF" d="M105.75,102.968c-0.06,0.238-0.298,0.357-0.713,0.357h-7.936
				c-0.477,0-0.891-0.208-1.248-0.625L82.746,86.028l-3.655,3.477v12.929c0,0.595-0.298,0.892-0.892,0.892h-6.152
				c-0.595,0-0.892-0.297-0.892-0.892V43.499c0-0.593,0.297-0.891,0.892-0.891h6.152c0.594,0,0.892,0.298,0.892,0.891v36.288
				l15.692-15.87c0.416-0.415,0.832-0.624,1.248-0.624h8.204c0.356,0,0.593,0.149,0.713,0.445c0.119,0.357,0.089,0.624-0.089,0.803
				L88.274,80.588l17.297,21.488C105.808,102.314,105.868,102.611,105.75,102.968"/>
			<path clip-path="url(#SVGID_4_)" fill="#20BEFF" d="M137.895,103.324h-6.152c-0.654,0-0.981-0.296-0.981-0.891v-1.249
				c-2.616,1.961-5.974,2.942-10.075,2.942c-3.744,0-6.985-1.159-9.719-3.476c-2.675-2.377-4.012-5.409-4.012-9.094
				c0-5.825,3.625-9.778,10.877-11.858c2.853-0.833,7.162-1.545,12.928-2.14c0.179-2.198-0.401-4.071-1.738-5.617
				c-1.337-1.545-3.285-2.318-5.84-2.318c-3.329,0-6.717,1.19-10.164,3.566c-0.535,0.298-0.922,0.238-1.159-0.178l-3.21-4.547
				c-0.298-0.357-0.208-0.772,0.267-1.248c4.577-3.15,9.332-4.726,14.266-4.726c3.804,0,7.044,0.892,9.719,2.675
				c3.923,2.616,5.884,6.806,5.884,12.571v24.697C138.786,103.028,138.488,103.324,137.895,103.324 M130.762,84.69
				c-5.826,0.595-9.807,1.368-11.947,2.318c-2.913,1.248-4.222,3.031-3.924,5.35c0.178,1.308,0.833,2.363,1.962,3.165
				c1.128,0.802,2.437,1.264,3.923,1.382c4.16,0.297,7.49-0.803,9.986-3.299V84.69z"/>
			<path clip-path="url(#SVGID_4_)" fill="#20BEFF" d="M175.225,118.793c-3.24,3.357-7.832,5.038-13.775,5.038
				c-3.448,0-6.717-0.862-9.807-2.585c-0.655-0.417-1.427-0.967-2.318-1.65c-0.892-0.683-1.933-1.531-3.121-2.541
				c-0.417-0.356-0.446-0.802-0.09-1.338l4.191-4.19c0.178-0.179,0.416-0.268,0.713-0.268c0.237,0,0.446,0.089,0.624,0.268
				c3.328,3.328,6.568,4.993,9.718,4.993c7.191,0,10.788-3.745,10.788-11.234v-4.636c-2.794,2.318-6.508,3.477-11.145,3.477
				c-5.766,0-10.284-2.168-13.552-6.508c-2.853-3.803-4.28-8.589-4.28-14.354c0-5.468,1.367-10.104,4.102-13.909
				c3.209-4.576,7.757-6.865,13.642-6.865c4.458,0,8.203,1.159,11.233,3.478v-1.783c0-0.594,0.297-0.892,0.892-0.892h6.153
				c0.593,0,0.891,0.298,0.891,0.892v39.854C180.084,110.516,178.464,115.435,175.225,118.793 M172.148,75.953
				c-1.486-3.803-4.934-5.706-10.342-5.706c-6.954,0-10.431,4.34-10.431,13.017c0,4.814,1.159,8.323,3.477,10.521
				c1.723,1.725,3.952,2.586,6.687,2.586c5.586,0,9.123-1.902,10.609-5.706V75.953z"/>
			<path clip-path="url(#SVGID_4_)" fill="#20BEFF" d="M217.142,118.793c-3.241,3.357-7.832,5.038-13.775,5.038
				c-3.449,0-6.718-0.862-9.808-2.585c-0.655-0.417-1.427-0.967-2.318-1.65c-0.892-0.683-1.932-1.531-3.121-2.541
				c-0.416-0.356-0.446-0.802-0.089-1.338l4.19-4.19c0.178-0.179,0.416-0.268,0.713-0.268c0.237,0,0.446,0.089,0.624,0.268
				c3.328,3.328,6.567,4.993,9.718,4.993c7.191,0,10.789-3.745,10.789-11.234v-4.636c-2.795,2.318-6.509,3.477-11.145,3.477
				c-5.766,0-10.284-2.168-13.552-6.508c-2.854-3.803-4.28-8.589-4.28-14.354c0-5.468,1.367-10.104,4.101-13.909
				c3.21-4.576,7.757-6.865,13.642-6.865c4.458,0,8.202,1.159,11.234,3.478v-1.783c0-0.594,0.296-0.892,0.892-0.892h6.152
				c0.593,0,0.891,0.298,0.891,0.892v39.854C222,110.516,220.38,115.435,217.142,118.793 M214.066,75.953
				c-1.487-3.803-4.935-5.706-10.343-5.706c-6.955,0-10.432,4.34-10.432,13.017c0,4.814,1.16,8.323,3.477,10.521
				c1.724,1.725,3.953,2.586,6.687,2.586c5.586,0,9.124-1.902,10.61-5.706V75.953z"/>
			<path clip-path="url(#SVGID_4_)" fill="#20BEFF" d="M235.681,103.324h-6.153c-0.594,0-0.891-0.296-0.891-0.891V43.499
				c0-0.593,0.297-0.891,0.891-0.891h6.153c0.593,0,0.891,0.297,0.891,0.891v58.935
				C236.572,103.028,236.274,103.324,235.681,103.324"/>
			<path clip-path="url(#SVGID_4_)" fill="#20BEFF" d="M280.523,85.225c0,0.595-0.299,0.892-0.892,0.892h-28.977
				c0.356,2.913,1.605,5.349,3.745,7.311c2.437,2.082,5.498,3.121,9.184,3.121c3.268,0,6.209-0.921,8.826-2.764
				c0.536-0.357,0.981-0.357,1.338,0l4.19,4.28c0.476,0.477,0.476,0.891,0,1.248c-4.279,3.21-9.244,4.814-14.889,4.814
				c-6.063,0-11.116-2.02-15.158-6.062c-3.922-3.982-5.884-9.064-5.884-15.246c0-5.825,1.931-10.758,5.795-14.801
				c3.567-3.685,8.203-5.527,13.909-5.527c5.408,0,9.955,1.932,13.642,5.795c3.803,3.983,5.557,8.976,5.26,14.979L280.523,85.225z
				 M268.843,72.119c-2.021-1.842-4.458-2.764-7.311-2.764c-2.675,0-5.024,0.892-7.043,2.674c-2.021,1.783-3.299,4.102-3.834,6.955
				h21.487C272.082,76.251,270.983,73.961,268.843,72.119"/>
			<polygon clip-path="url(#SVGID_4_)" fill="#20BEFF" points="278.572,62.935 281.129,62.935 281.129,63.413 280.125,63.413 
				280.125,66.093 279.572,66.093 279.572,63.413 278.572,63.413 			"/>
			<polygon clip-path="url(#SVGID_4_)" fill="#20BEFF" points="281.488,62.935 282.267,62.935 283.139,65.408 283.147,65.408 
				283.997,62.935 284.766,62.935 284.766,66.093 284.24,66.093 284.24,63.656 284.231,63.656 283.355,66.093 282.9,66.093 
				282.023,63.656 282.015,63.656 282.015,66.093 281.488,66.093 			"/>
		</g>
	</g>
</g>
</svg>
